<svg width="429" height="55.67916042944415" viewBox="-12 0 242 31.408757165327472" class="css-1j8o68f"><defs id="SvgjsDefs4167"></defs><g id="SvgjsG4168" featurekey="symbolFeature-0" transform="matrix(0.923786975450808,0,0,0.923786975450808,-246.82661814868007,-715.8425498302241)" fill="#ffcd3c"><path xmlns="http://www.w3.org/2000/svg" d="M332.4,786.7c2.8-3.6,4.7-5.8,8.4-5.8v-6c-6.9,0-10.4,4.5-13.2,8.2c-2.8,3.6-4.7,5.8-8.4,5.8c0,0,0,0,0,0c0,0,0,0-0.1,0  c-3.7,0-5.6-2.2-8.4-5.8c-2.8-3.6-6.3-8.2-13.2-8.2c-6.9,0-10.4,4.5-13.2,8.2c-2.8,3.6-4.7,5.8-8.4,5.8c0,0,0,0,0,0c0,0,0,0-0.1,0  c-3.7,0-5.6-2.2-8.4-5.8c-2.8-3.6-6.3-8.2-13.2-8.2v6c3.7,0,5.6,2.2,8.4,5.8c1.3,1.7,2.8,3.6,4.7,5.2c-1.9,1.5-3.4,3.4-4.7,5.2  c-2.8,3.6-4.7,5.8-8.4,5.8v6c6.9,0,10.4-4.5,13.2-8.2c2.8-3.6,4.7-5.8,8.4-5.8c0,0,0,0,0,0c0,0,0,0,0.1,0c3.7,0,5.6,2.2,8.4,5.8  c2.8,3.6,6.3,8.2,13.2,8.2c6.9,0,10.4-4.5,13.2-8.2c2.8-3.6,4.7-5.8,8.4-5.8c0,0,0,0,0,0c0,0,0,0,0.1,0c3.7,0,5.6,2.2,8.4,5.8  c2.8,3.6,6.3,8.2,13.2,8.2v-6c-3.7,0-5.6-2.2-8.4-5.8c-1.3-1.7-2.8-3.6-4.7-5.2C329.6,790.3,331.1,788.4,332.4,786.7z M306.1,797.1  c-2.8,3.6-4.7,5.8-8.4,5.8c-3.7,0-5.6-2.2-8.4-5.8c-1.3-1.7-2.8-3.6-4.7-5.2c1.9-1.5,3.4-3.4,4.7-5.2c2.8-3.6,4.7-5.8,8.4-5.8  c3.7,0,5.6,2.2,8.4,5.8c1.3,1.7,2.8,3.6,4.7,5.2C308.9,793.4,307.4,795.3,306.1,797.1z"></path></g><g id="SvgjsG4169" featurekey="nameFeature-0" transform="matrix(0.9109127057315347,0,0,0.9109127057315347,98.72472169074742,-6.7811979272750005)" fill="#111111"><path d="M37.24 10.16 l4.6 0 l-9.52 29.84 l-4.72 0 l-5.76 -17.64 l-5.6 17.64 l-4.72 0 l-10.12 -29.84 l4.48 0 l7.92 22.32 l5.6 -17.6 l-1.52 -4.72 l4.48 0 l7.52 22.32 z M59.918 13.32 l-1.64 -3.68 l4.8 0 l14.36 30.36 l-4.88 0 l-1.96 -4.36 l-9.08 0 q-2.56 0 -4.6 0.48 q-1.8 0.44 -3 1.16 q-1.08 0.64 -1.44 1.32 l-0.76 1.4 l-4.72 0 z M63.118 31.240000000000002 l5.52 0 l-6.52 -12.6 l-6.6 14.28 q0.88 -0.76 2.68 -1.2 q2.04 -0.48 4.92 -0.48 z M112.796 10.16 l-12.52 29.84 l-5.16 0 l-12.32 -29.84 l4.72 0 l10.2 24.96 l10.28 -24.96 l4.8 0 z M125.71400000000001 28.04 l0 7.6 l18.4 0 l0 4.36 l-22.76 0 l0 -29.84 l21 0 l0 4.4 l-16.64 0 l0 9.04 q1.24 -0.72 2.76 -0.96 q1.12 -0.2 2.88 -0.2 l6.52 0 l0 4.44 l-6.52 0 q-1.64 0 -2.88 0.2 q-1.52 0.28 -2.76 0.96 z"></path></g></svg>